/* XPM */
static char * stock_about_xpm[] = {
"24 24 341 2",
"  	c None",
". 	c #3A352F",
"+ 	c #332D24",
"@ 	c #322C26",
"# 	c #645E58",
"$ 	c #696057",
"% 	c #423A32",
"& 	c #1A1817",
"* 	c #433D32",
"= 	c #978C79",
"- 	c #A6977C",
"; 	c #837150",
"> 	c #39301F",
", 	c #9A8F85",
"' 	c #D5CCC2",
") 	c #D3C4AE",
"! 	c #BBA68A",
"~ 	c #5B4D3E",
"{ 	c #110F0E",
"] 	c #322D28",
"^ 	c #9F9078",
"/ 	c #D0BEA0",
"( 	c #CAB58C",
"_ 	c #C5AB7B",
": 	c #A4895A",
"< 	c #40382F",
"[ 	c #9B958C",
"} 	c #D7CCBD",
"| 	c #D2C3AA",
"1 	c #CFBFA2",
"2 	c #A28E74",
"3 	c #231E19",
"4 	c #433D36",
"5 	c #655B4E",
"6 	c #302D27",
"7 	c #312E2A",
"8 	c #625B4E",
"9 	c #64573F",
"0 	c #B8A580",
"a 	c #C6AE7E",
"b 	c #C5AC79",
"c 	c #C5AC78",
"d 	c #B19668",
"e 	c #453D34",
"f 	c #625D54",
"g 	c #AFA38D",
"h 	c #CEBFA2",
"i 	c #D4C6AC",
"j 	c #C5B395",
"k 	c #786853",
"l 	c #7B7261",
"m 	c #BCAF94",
"n 	c #7B7362",
"o 	c #9A8F7A",
"p 	c #C8B898",
"q 	c #C5AB79",
"r 	c #C6AD7B",
"s 	c #C6AD7A",
"t 	c #C6AC79",
"u 	c #B49C6D",
"v 	c #45392A",
"w 	c #3A3632",
"x 	c #5A5348",
"y 	c #C6B9A4",
"z 	c #D8CEBF",
"A 	c #D0C2AA",
"B 	c #C3B192",
"C 	c #C8BA9E",
"D 	c #D1C3A5",
"E 	c #CFC1A4",
"F 	c #D0C2A4",
"G 	c #D0C1A1",
"H 	c #C7B185",
"I 	c #C3AB79",
"J 	c #C3AA78",
"K 	c #C5AC7B",
"L 	c #BDA473",
"M 	c #574B35",
"N 	c #343230",
"O 	c #332E2A",
"P 	c #746C61",
"Q 	c #A49C93",
"R 	c #9C9488",
"S 	c #9D9382",
"T 	c #A79B86",
"U 	c #CBBDA0",
"V 	c #D0C2A5",
"W 	c #B4A78E",
"X 	c #958A75",
"Y 	c #786D5C",
"Z 	c #5B5140",
"` 	c #584B35",
" .	c #584B33",
"..	c #8B7654",
"+.	c #C3A976",
"@.	c #A88F60",
"#.	c #373125",
"$.	c #3F3A34",
"%.	c #6A635A",
"&.	c #655E55",
"*.	c #625B52",
"=.	c #5B5449",
"-.	c #60594D",
";.	c #B3A894",
">.	c #C3B7A2",
",.	c #827666",
"'.	c #7A6E58",
").	c #837455",
"!.	c #98865F",
"~.	c #9D8A62",
"{.	c #9A875F",
"].	c #A99568",
"^.	c #C4AC77",
"/.	c #BFA36F",
"(.	c #6D5C3F",
"_.	c #35302B",
":.	c #766F66",
"<.	c #D2C6B2",
"[.	c #D8CCB9",
"}.	c #D7CBB6",
"|.	c #D5C8B0",
"1.	c #D4C8B1",
"2.	c #D2C3A9",
"3.	c #D0C0A5",
"4.	c #CDBD9F",
"5.	c #C8B185",
"6.	c #C6AE7B",
"7.	c #C6AE7C",
"8.	c #C4AB7A",
"9.	c #C0A674",
"0.	c #C2A671",
"a.	c #A18757",
"b.	c #3E362B",
"c.	c #262422",
"d.	c #4E4840",
"e.	c #6D6555",
"f.	c #635B4F",
"g.	c #A69A86",
"h.	c #A89E91",
"i.	c #938A79",
"j.	c #837B6C",
"k.	c #756D5F",
"l.	c #6D6557",
"m.	c #665D52",
"n.	c #635A4C",
"o.	c #917E5C",
"p.	c #C3AC79",
"q.	c #C5AE7B",
"r.	c #BB9F6D",
"s.	c #8D7751",
"t.	c #8A7650",
"u.	c #BA9F6B",
"v.	c #B09460",
"w.	c #3E3321",
"x.	c #3F3932",
"y.	c #938674",
"z.	c #D0C4AE",
"A.	c #AAA08B",
"B.	c #211E1B",
"C.	c #0A0908",
"D.	c #1C1915",
"E.	c #2A2622",
"F.	c #0E0C0B",
"G.	c #000002",
"H.	c #030204",
"I.	c #010102",
"J.	c #080706",
"K.	c #726246",
"L.	c #C3AB7A",
"M.	c #C7AE7C",
"N.	c #C4AA75",
"O.	c #BB9C62",
"P.	c #876B3A",
"Q.	c #5F4E2F",
"R.	c #9C8150",
"S.	c #4E3F27",
"T.	c #7E705F",
"U.	c #D1C3AE",
"V.	c #D5C9B1",
"W.	c #ADA18A",
"X.	c #020103",
"Y.	c #0B0A09",
"Z.	c #0D0C0C",
"`.	c #040304",
" +	c #000001",
".+	c #010001",
"++	c #010101",
"@+	c #30291E",
"#+	c #AC966B",
"$+	c #C6AE7A",
"%+	c #C3A76F",
"&+	c #B89554",
"*+	c #7A5E34",
"=+	c #685432",
"-+	c #5B4B2C",
";+	c #BDAF97",
">+	c #D6C9B2",
",+	c #D1C3A6",
"'+	c #D1C2A5",
")+	c #B2A48A",
"!+	c #40382E",
"~+	c #060506",
"{+	c #0E0C0A",
"]+	c #9B875F",
"^+	c #C7AE7B",
"/+	c #C7AE7D",
"(+	c #C5A974",
"_+	c #BD9A5D",
":+	c #A88147",
"<+	c #4D3C22",
"[+	c #61543E",
"}+	c #453E39",
"|+	c #C5B8A3",
"1+	c #D3C6AB",
"2+	c #CDBD9E",
"3+	c #9E896A",
"4+	c #483C30",
"5+	c #030304",
"6+	c #383123",
"7+	c #C0A876",
"8+	c #C5AE7C",
"9+	c #C5AE7A",
"0+	c #C1A46D",
"a+	c #B18D53",
"b+	c #9C7642",
"c+	c #453A29",
"d+	c #343332",
"e+	c #A69983",
"f+	c #CDBA97",
"g+	c #CEBB99",
"h+	c #CCB998",
"i+	c #BBA27F",
"j+	c #B39874",
"k+	c #AD9574",
"l+	c #524637",
"m+	c #090807",
"n+	c #705D41",
"o+	c #B59864",
"p+	c #B89A65",
"q+	c #BEA26D",
"r+	c #C5AB76",
"s+	c #C0A36D",
"t+	c #BB9B62",
"u+	c #AE8A51",
"v+	c #634A2A",
"w+	c #3E3A35",
"x+	c #3B3732",
"y+	c #60533C",
"z+	c #B59B6D",
"A+	c #B3996E",
"B+	c #AD8F65",
"C+	c #AF9165",
"D+	c #AE9266",
"E+	c #9F845F",
"F+	c #433727",
"G+	c #070606",
"H+	c #181613",
"I+	c #514634",
"J+	c #756144",
"K+	c #856D4B",
"L+	c #977B4D",
"M+	c #AE8F57",
"N+	c #A17C47",
"O+	c #9A7642",
"P+	c #9A7641",
"Q+	c #594224",
"R+	c #3B3226",
"S+	c #342F25",
"T+	c #2F2820",
"U+	c #2C241A",
"V+	c #352C20",
"W+	c #423728",
"X+	c #453928",
"Y+	c #382F23",
"Z+	c #403C39",
"`+	c #A6A3A0",
" @	c #7C7A77",
".@	c #565451",
"+@	c #4B4845",
"@@	c #46423B",
"#@	c #463E33",
"$@	c #2F261C",
"%@	c #2F271B",
"&@	c #3B3123",
"*@	c #3D3934",
"=@	c #1E1D1E",
"-@	c #54514C",
";@	c #8C8679",
">@	c #837A6B",
",@	c #908C83",
"'@	c #B9B7B3",
")@	c #CFCDC8",
"!@	c #DAD9D6",
"~@	c #D8D8D4",
"{@	c #D3D3CF",
"]@	c #CAC8C4",
"^@	c #BDBBB9",
"/@	c #4D4A47",
"(@	c #312F2C",
"_@	c #827F7C",
":@	c #DEDDD8",
"<@	c #DCDAD2",
"[@	c #E0DFDB",
"}@	c #E0E0DC",
"|@	c #C8C5C1",
"1@	c #D5D4D0",
"2@	c #D3D2CE",
"3@	c #424140",
"4@	c #615F5C",
"5@	c #DEDEDA",
"6@	c #BDBAB4",
"7@	c #D0CEC9",
"8@	c #9A9996",
"9@	c #383635",
"0@	c #BCBAB6",
"a@	c #E0E0DD",
"b@	c #A9A6A2",
"c@	c #C5C4BF",
"d@	c #4C4B49",
"e@	c #73716D",
"f@	c #DEDEDB",
"g@	c #999692",
"h@	c #B5B2AE",
"i@	c #DDDDD9",
"j@	c #484644",
"k@	c #3E3D3A",
"l@	c #9B9995",
"m@	c #AFAEAB",
"n@	c #B8B7B4",
"o@	c #999793",
"p@	c #D0CFCB",
"q@	c #CCCBC7",
"r@	c #A8A7A4",
"s@	c #373635",
"t@	c #514F4C",
"u@	c #4A4948",
"v@	c #464341",
"w@	c #242322",
"x@	c #4E4D4B",
"y@	c #605F5D",
"z@	c #656462",
"                                    . + @       ",
"            # $ % &               * = - ; >     ",
"          , ' ) ! ~ {           ] ^ / ( _ : <   ",
"          [ } | 1 2 3 4 5 6 7 8 9 0 a b c d e   ",
"          f g h i j k l m n o p q r s t u v w   ",
"            x y z A B C D E F G H I J K L M N   ",
"          O P Q R S T U V W X Y Z `  ...+.@.#.  ",
"          $.%.&.*.=.-.;.>.,.'.).!.~.{.].^./.(.  ",
"        _.:.<.[.}.|.1.2.3.4.5.6.7.7.8.9.b 0.a.b.",
"    c.d.e.f.g.h.i.j.k.l.m.n.o.p.q.7.r.s.t.u.v.w.",
"  x.y.z.A.B.C.D.E.F.G.H.I.J.K.L.M.6.N.O.P.Q.R.S.",
"  T.U.V.W.B.X.Y.Z.`. +.+++@+#+q.6.q.$+%+&+*+=+-+",
"% ;+>+,+'+)+!+~+G. + + +{+]+r ^+/+6.M.(+_+:+<+[+",
"}+|+1+D D 2+3+4+5+ + + +6+7+7.$+6.8+9+0+a+b+c+  ",
"d+e+f+g+h+i+j+k+l+m+ +m+n+o+p+q+r+s+t+u+b+v+w+  ",
"  x+y+z+A+B+C+D+E+F+G+H+I+J+K+L+M+N+O+P+Q+R+    ",
"      S+T+U+V+W+X+Y+Z+`+ @.@+@@@#@$@%@&@*@      ",
"          =@-@;@>@,@'@)@!@~@{@]@^@/@(@          ",
"            _@:@<@[@}@|@1@}@}@}@2@3@            ",
"            4@5@}@}@}@6@7@}@}@}@8@d+            ",
"            9@0@a@}@}@b@c@}@}@}@d@              ",
"              e@f@}@}@g@h@}@}@i@j@              ",
"              k@l@m@n@ @o@p@q@r@s@              ",
"                t@u@v@w@s@x@y@z@                "};
